<?xml version="1.0" encoding="UTF-8" standalone="no"?>
<!--?xml version="1.0" encoding="UTF-8"?-->

<svg
   width="4319.103"
   height="711.09375"
   viewBox="0 0 4319.103 711.09375"
   version="1.1"
   id="svg1"
   sodipodi:docname="dasher-horizontal-final.svg"
   inkscape:version="1.4.3 (0d15f75, 2025-12-25)"
   xmlns:inkscape="http://www.inkscape.org/namespaces/inkscape"
   xmlns:sodipodi="http://sodipodi.sourceforge.net/DTD/sodipodi-0.dtd"
   xmlns="http://www.w3.org/2000/svg"
   xmlns:svg="http://www.w3.org/2000/svg">
  <defs
     id="defs1" />
  <sodipodi:namedview
     id="namedview1"
     pagecolor="#ffffff"
     bordercolor="#000000"
     borderopacity="0.25"
     inkscape:showpageshadow="false"
     inkscape:pageopacity="0.0"
     inkscape:pagecheckerboard="0"
     inkscape:deskcolor="#d1d1d1"
     showborder="false"
     borderlayer="false"
     inkscape:zoom="0.78468085"
     inkscape:cx="2125.0678"
     inkscape:cy="410.99512"
     inkscape:window-width="3840"
     inkscape:window-height="2126"
     inkscape:window-x="2869"
     inkscape:window-y="-11"
     inkscape:window-maximized="1"
     inkscape:current-layer="svg1" />
  <!-- Absolute black background -->
  <rect
     width="100%"
     height="100%"
     fill="#000000"
     id="rect1"
     x="0"
     y="0" />
  <!-- Real text, readable, minimal optical padding -->
  <path
     d="m 0,11.71875 h 275.2544 q 93.10823,0 141.9519,13.125 65.63367,17.8125 112.44218,63.28125 46.80851,45.46875 71.23035,111.5625 24.42183,65.625 24.42183,162.1875 0,84.84375 -22.89547,146.24999 -27.98335,75 -79.87974,121.40625 -39.17669,35.15625 -105.82794,54.84375 -49.86124,14.53125 -133.3025,14.53125 H 0 Z m 150.6013,116.25 v 455.15624 h 112.44218 q 63.08973,0 91.07308,-6.5625 36.63275,-8.4375 60.5458,-28.59375 24.42183,-20.15625 39.68547,-66.09375 15.26365,-46.40624 15.26365,-126.09374 0,-79.6875 -15.26365,-122.34375 -15.26364,-42.65625 -42.7382,-66.5625 -27.47456,-23.90625 -69.70398,-32.34375 -31.54487,-6.5625 -123.63553,-6.5625 z M 1425.6245,698.90624 H 1261.7947 L 1196.6698,542.81249 H 898.51985 l -61.5633,156.09375 H 677.19703 L 967.71505,11.71875 h 159.25075 z m -277.2896,-271.87499 -102.7752,-255 -100.74005,255 z m 319.0102,48.28124 146.5309,-13.125 q 13.2285,67.96875 53.4228,99.84375 40.703,31.875 109.3895,31.875 72.7566,0 109.3894,-28.125 37.1415,-28.59375 37.1415,-66.5625 0,-24.375 -15.7723,-41.24999 -15.2637,-17.34375 -53.9316,-30 -26.457,-8.4375 -120.5828,-30 Q 1611.8409,370.3125 1562.9973,330 q -68.6864,-56.71875 -68.6864,-138.28125 0,-52.5 32.0536,-97.96875 32.5625,-45.9375 93.1082,-69.84375 Q 1680.5272,0 1766.5125,0 q 140.4256,0 211.1471,56.71875 71.2303,56.71875 74.7919,151.40625 l -150.6013,6.09375 q -9.667,-52.96875 -41.7206,-75.9375 -31.5449,-23.4375 -95.1434,-23.4375 -65.6337,0 -102.7752,24.84375 -23.9131,15.9375 -23.9131,42.65625 0,24.375 22.3867,41.71875 28.4921,22.03125 138.3904,45.9375 109.8982,23.90625 162.3034,49.6875 52.914,25.3125 82.4237,69.84375 30.0185,44.0625 30.0185,109.21874 0,59.0625 -35.6152,110.625 -35.6153,51.5625 -100.74,76.875 -65.1249,24.84375 -162.3035,24.84375 -141.4431,0 -217.2525,-60 -75.8095,-60.46875 -90.5643,-175.78125 z m 733.6725,223.59375 V 11.71875 h 150.6012 V 282.1875 h 295.0973 V 11.71875 h 150.6012 V 698.90624 H 2646.7161 V 398.4375 h -295.0973 v 300.46874 z m 751.9888,0 V 11.71875 h 553.0526 v 116.25 H 3103.6077 V 280.3125 h 374.4681 v 115.78125 h -374.4681 v 187.03124 h 416.6975 v 115.78125 z m 695.5137,0 V 11.71875 h 316.975 q 119.5652,0 173.4967,18.75 54.4404,18.28125 87.0027,65.625 32.5625,47.34375 32.5625,108.28125 0,77.34375 -49.3524,127.96875 -49.3524,50.15625 -147.5485,63.28125 48.8436,26.25 80.3885,57.65625 32.0536,31.40624 85.9852,111.56249 l 91.073,134.0625 h -180.111 L 4030.1111,549.37499 Q 3972.1092,469.21874 3950.7401,448.59375 3929.371,427.5 3905.458,420 q -23.9131,-7.96875 -75.8094,-7.96875 h -30.5273 v 286.87499 z m 150.6012,-396.56249 h 111.4246 q 108.3719,0 135.3376,-8.4375 26.9658,-8.4375 42.2294,-29.0625 15.2637,-20.625 15.2637,-51.5625 0,-34.6875 -20.3514,-55.78125 -19.8428,-21.5625 -56.4755,-27.1875 -18.3164,-2.34375 -109.8983,-2.34375 h -117.53 z"
     id="text1"
     style="font-weight:700;font-size:960px;font-family:'Helvetica Neue', Helvetica, Arial, sans-serif;dominant-baseline:central;text-anchor:middle;fill:#0c0c0c"
     aria-label="DASHER" />
</svg>
